<?xml version="1.0" encoding="UTF-8" standalone="no"?> <svg xmlns="http://www.w3.org/2000/svg" viewBox="0 0 60 60"><defs><style>.a{fill:none;stroke:#1c4db8;stroke-linecap:round;stroke-linejoin:round;stroke-width:1.5px;}.b{fill:#e82e5f;}</style></defs><title>021-voting-day</title><path class="a" d="M52.387,21.133V47.3a5.816,5.816,0,0,1-5.816,5.816H7.316A5.816,5.816,0,0,1,1.5,47.3V15.317"/><path class="a" d="M55.444,9.5H7.316A5.816,5.816,0,0,0,1.5,15.317v5.816H52.387"/><line class="a" x1="32.69" y1="32.764" x2="52.387" y2="32.764"/><line class="a" x1="1.5" y1="32.764" x2="9.985" y2="32.764"/><line class="a" x1="1.5" y1="42.942" x2="52.387" y2="42.942"/><line class="a" x1="13.858" y1="39.977" x2="13.858" y2="53.119"/><line class="a" x1="13.858" y1="21.133" x2="13.858" y2="25.665"/><line class="a" x1="26.944" y1="38.52" x2="26.944" y2="53.119"/><line class="a" x1="40.029" y1="21.133" x2="40.029" y2="53.119"/><path class="a" d="M58.5,21.133V12.558A3.057,3.057,0,0,0,55.444,9.5h0a3.057,3.057,0,0,0-3.057,3.057v8.575"/><path class="a" d="M58.5,21.133V46.75a6.368,6.368,0,0,1-6.369,6.369h-5.56"/><path class="a" d="M55.444,9.5V46.75a6.369,6.369,0,0,1-6.369,6.369h-2.5"/><path class="a" d="M12.646,13.7V8.866a1.986,1.986,0,0,1,3.971,0V9.5"/><circle class="a" cx="12.646" cy="13.7" r="2.148"/><path class="a" d="M26.154,13.7V8.866a1.985,1.985,0,1,1,3.97,0V9.5"/><circle class="a" cx="26.154" cy="13.7" r="2.148"/><path class="a" d="M39.661,13.7V8.866a1.985,1.985,0,0,1,3.97,0V9.5"/><circle class="a" cx="39.661" cy="13.7" r="2.148"/><path class="b" d="M36.117,23.807a.5.5,0,0,0-.244-.863c-1.726-.319-5.766-.251-10.916,5.183a65.275,65.275,0,0,0-4.835,5.828c-1.1-1.12-4.748-4.479-6.517-2.262a.5.5,0,0,0-.009.613c.827,1.1,3.8,5.054,4.682,6.41a2.277,2.277,0,0,0,3.877,0A59.455,59.455,0,0,1,28.132,31.3C29.864,29.474,34.405,25.352,36.117,23.807Z"/></svg>