<?xml version="1.0" encoding="utf-8"?><svg version="1.1" id="Layer_1" xmlns="http://www.w3.org/2000/svg" xmlns:xlink="http://www.w3.org/1999/xlink" x="0px" y="0px" viewBox="0 0 122.88 118.73" style="enable-background:new 0 0 122.88 118.73" xml:space="preserve"><style type="text/css">.st0{fill:#fff;} .st1{fill:#fff;}</style><g><path class="st0" d="M82.68,4.21c0-2.34,2.3-4.21,5.16-4.21C90.7,0,93,1.91,93,4.21v18.5c0,2.34-2.3,4.21-5.16,4.21 c-2.86,0-5.16-1.9-5.16-4.21V4.21L82.68,4.21L82.68,4.21z M67.14,29.2v36.92H56.95V41.84c-1.65,1.24-3.24,2.25-4.79,3.02 c-1.54,0.77-3.48,1.51-5.8,2.22v-8.22c3.44-1.1,6.09-2.42,7.99-3.95c1.89-1.55,3.38-3.45,4.45-5.71H67.14L67.14,29.2z M29.67,4.21 c0-2.34,2.3-4.21,5.16-4.21c2.86,0,5.16,1.91,5.16,4.21v18.5c0,2.34-2.3,4.21-5.16,4.21c-2.86,0-5.16-1.9-5.16-4.21V4.21 L29.67,4.21L29.67,4.21z M6.76,109.26c0,0.71,0.28,1.39,0.76,1.87c0.48,0.48,1.11,0.75,1.87,0.75h104.03 c0.71,0,1.39-0.28,1.86-0.75c0.48-0.48,0.75-1.11,0.75-1.87c0-28.88,0-60.12,0-89c0-0.72-0.28-1.39-0.75-1.83 c-0.48-0.48-1.11-0.75-1.82-0.75h-8.33c-1.59,0-2.86-2.35-2.86-3.94c0-1.59,1.27-2.86,2.86-2.86h9.41c2.3,0,4.37,0.95,5.88,2.46 c1.51,1.51,2.46,3.61,2.46,5.88v91.17c0,2.3-0.95,4.37-2.46,5.88c-1.51,1.51-3.61,2.46-5.88,2.46H8.34c-2.3,0-4.37-0.95-5.88-2.46 C0.95,114.76,0,112.66,0,110.39V19.22c0-2.3,0.95-4.37,2.46-5.88c1.51-1.51,3.61-2.46,5.88-2.46h10.09c1.59,0,2.86,1.27,2.86,2.86 c0,1.59-1.27,3.94-2.86,3.94h-9c-0.71,0-1.39,0.28-1.87,0.75C7.08,18.91,6.8,19.55,6.8,20.3C6.8,49.11,6.76,80.33,6.76,109.26 L6.76,109.26z M51.55,17.64c-1.59,0-2.86-2.35-2.86-3.94c0-1.59,1.27-2.86,2.86-2.86h19.22c1.59,0,2.86,1.27,2.86,2.86 c0,1.59-1.27,3.94-2.86,3.94L51.55,17.64L51.55,17.64L51.55,17.64z"/><path class="st1" d="M49.4,76.51l-3.36,27.27h-9.46c-0.87-4.19-1.63-8.95-2.28-14.28c-0.3,2.28-1,7.04-2.11,14.28h-9.4l-3.38-27.27 h7.35l0.77,9.52l0.79,9.18c0.28-4.75,0.98-10.98,2.09-18.7h7.87c0.11,0.8,0.39,3.79,0.83,8.99l0.83,10.36 c0.42-6.59,1.12-13.05,2.1-19.35H49.4L49.4,76.51z M51.92,76.51h12.62v5.46h-5.06v5.17h4.73v5.19h-4.73v6h5.56v5.46H51.92V76.51 L51.92,76.51z M68.24,76.51h12.63v5.46H75.8v5.17h4.73v5.19H75.8v6h5.56v5.46H68.24V76.51L68.24,76.51z M102.59,76.51l-4.33,12.31 l4.74,14.96h-7.82l-3.06-11.69v11.69h-7.57V76.51h7.57v10.6l3.36-10.6H102.59L102.59,76.51z"/></g></svg>